{"glyphs":{"0":{"ha":1071,"x_min":0,"x_max":0,"o":"m 532 1006 b 1050 488 818 1006 1050 774 b 532 -31 1050 201 818 -31 b 14 488 246 -31 14 201 b 532 1006 14 774 246 1006 "},"1":{"ha":674,"x_min":0,"x_max":0,"o":"m 632 972 l 632 0 l 126 0 l 126 507 l 1 507 l 164 972 l 632 972 "},"2":{"ha":1032,"x_min":0,"x_max":0,"o":"m 778 974 b 1019 731 911 974 1019 856 b 799 497 1019 604 935 524 l 799 488 l 990 488 l 990 0 b 33 0 671 0 351 0 l 33 235 b 218 478 33 353 97 450 l 218 488 l 58 488 l 58 974 l 778 974 "},"3":{"ha":921,"x_min":0,"x_max":0,"o":"m 39 972 b 544 972 213 972 371 972 b 801 521 810 972 963 699 b 529 0 1024 357 874 0 b 39 0 361 0 207 0 l 39 328 l 236 328 l 236 369 l 39 369 l 39 603 l 236 603 l 236 644 l 39 644 l 39 972 "},"4":{"ha":1033,"x_min":0,"x_max":0,"o":"m 21 714 l 21 972 b 993 972 906 972 108 972 l 993 0 l 488 0 l 488 229 b 21 714 228 239 21 453 "},"5":{"ha":1015,"x_min":0,"x_max":0,"o":"m 761 0 b 42 0 521 0 281 0 l 42 444 l 219 444 l 219 486 l 42 486 l 42 972 l 974 972 l 974 485 l 782 485 l 782 476 b 1003 243 918 449 1003 368 b 761 0 1003 118 894 0 "},"6":{"ha":1068,"x_min":0,"x_max":0,"o":"m 558 672 l 592 649 l 725 836 b 1043 429 953 764 1043 596 b 539 -42 1043 156 853 -40 b 18 478 203 -44 18 190 b 101 760 18 574 46 682 l 254 974 l 775 974 b 558 672 696 861 639 785 "},"7":{"ha":989,"x_min":0,"x_max":0,"o":"m 26 0 l 206 507 l 26 507 l 26 972 l 999 972 b 657 0 883 647 771 325 l 26 0 "},"8":{"ha":974,"x_min":0,"x_max":0,"o":"m 554 -31 l 422 -31 b 129 528 51 -31 -110 351 b 425 1008 -44 719 139 1008 l 546 1008 b 849 528 832 1008 1022 719 b 554 -31 1088 351 926 -31 "},"9":{"ha":1068,"x_min":0,"x_max":0,"o":"m 506 299 l 472 322 l 339 135 b 21 542 111 207 21 375 b 525 1013 21 815 211 1011 b 1046 493 861 1015 1046 781 b 963 211 1046 397 1018 289 l 810 -3 l 289 -3 b 506 299 368 110 425 186 "},"A":{"ha":1146,"x_min":0,"x_max":0,"o":"m -39 0 l 575 1040 l 1189 0 b -39 0 115 0 1029 0 "},"B":{"ha":926,"x_min":0,"x_max":0,"o":"m 40 972 b 546 972 214 972 372 972 b 803 521 811 972 964 699 b 531 0 1025 357 875 0 b 40 0 363 0 208 0 l 40 972 "},"C":{"ha":889,"x_min":0,"x_max":0,"o":"m 165 849 b 889 849 365 1049 689 1049 l 526 488 l 889 125 b 165 125 689 -75 365 -75 b 165 849 -35 325 -35 649 "},"D":{"ha":1039,"x_min":0,"x_max":0,"o":"m 528 -1 l 42 -1 b 42 972 42 993 42 -22 l 528 972 b 1014 485 796 972 1014 753 b 528 -1 1014 217 796 -1 "},"E":{"ha":886,"x_min":0,"x_max":0,"o":"m 40 974 l 846 974 l 846 646 l 644 646 l 644 604 l 846 604 l 846 371 l 644 371 l 644 329 l 846 329 l 846 1 l 40 1 l 40 974 "},"F":{"ha":889,"x_min":0,"x_max":0,"o":"m 43 972 l 849 972 l 849 644 l 647 644 l 647 603 l 849 603 l 849 290 l 631 290 l 631 0 l 43 0 l 43 972 "},"G":{"ha":1064,"x_min":0,"x_max":0,"o":"m 532 488 l 1046 488 b 532 -26 1046 203 817 -26 b 18 488 247 -26 18 203 b 450 996 18 743 204 956 b 789 933 565 1014 686 992 l 532 488 "},"I":{"ha":588,"x_min":0,"x_max":0,"o":"m 40 972 l 546 972 l 546 0 l 40 0 l 40 972 "},"J":{"ha":1044,"x_min":0,"x_max":0,"o":"m 1004 403 b 35 403 1004 -176 35 -176 l 35 607 l 494 607 l 494 433 l 536 433 b 536 974 536 622 536 783 l 1004 974 l 1004 403 "},"K":{"ha":999,"x_min":0,"x_max":0,"o":"m 42 972 l 994 972 l 631 486 l 994 -1 l 42 -1 l 42 972 "},"L":{"ha":835,"x_min":0,"x_max":0,"o":"m 528 486 l 797 486 l 797 0 l 42 0 b 42 972 42 324 42 649 l 528 972 l 528 486 "},"M":{"ha":1053,"x_min":0,"x_max":0,"o":"m 42 0 l 39 1010 l 525 642 l 1011 1010 l 1014 0 l 42 0 "},"N":{"ha":1053,"x_min":0,"x_max":0,"o":"m 42 996 l 531 614 l 531 972 l 1014 972 l 1014 0 b 42 0 118 0 938 0 l 42 996 "},"O":{"ha":1071,"x_min":0,"x_max":0,"o":"m 532 1006 b 1050 488 818 1006 1050 774 b 532 -31 1050 201 818 -31 b 14 488 246 -31 14 201 b 532 1006 14 774 246 1006 "},"P":{"ha":922,"x_min":0,"x_max":0,"o":"m 507 972 b 904 578 725 972 904 797 b 511 185 904 363 728 185 l 511 0 l 42 0 b 42 972 42 1078 42 222 l 507 972 "},"Q":{"ha":1061,"x_min":0,"x_max":0,"o":"m 529 1010 b 1042 497 813 1010 1042 781 b 922 168 1042 372 996 257 l 783 304 l 754 275 l 1042 -7 l 1042 -15 l 529 -15 b 17 497 247 -15 17 217 b 529 1010 17 781 246 1010 "},"R":{"ha":919,"x_min":0,"x_max":0,"o":"m 508 972 b 904 576 726 972 904 796 b 753 267 904 450 846 339 l 896 -1 b 42 -1 611 -1 326 -1 b 42 972 42 1076 42 221 l 508 972 "},"S":{"ha":1001,"x_min":0,"x_max":0,"o":"m 249 972 l 978 972 l 978 483 l 808 483 l 808 474 b 756 -1 1088 411 1036 -1 l 32 -1 l 32 483 l 228 483 l 228 493 b 7 731 92 519 7 604 b 249 972 7 856 115 972 "},"T":{"ha":933,"x_min":0,"x_max":0,"o":"m 715 485 l 715 -1 l 229 -1 l 229 485 l 28 485 l 28 972 l 904 972 l 904 485 l 715 485 "},"U":{"ha":1044,"x_min":0,"x_max":0,"o":"m 36 467 l 36 975 b 1008 975 1031 975 14 975 l 1008 467 b 522 -19 1008 199 790 -19 b 36 467 254 -19 36 199 "},"V":{"ha":1164,"x_min":0,"x_max":0,"o":"m 1197 974 l 583 -68 l -32 974 b 1197 974 1042 974 129 974 "},"W":{"ha":1664,"x_min":0,"x_max":0,"o":"m -36 975 b 1700 975 1053 975 615 975 l 1088 -62 b 740 519 971 135 856 324 l 710 490 l 808 324 l 576 -62 l -36 975 "},"X":{"ha":1039,"x_min":0,"x_max":0,"o":"m 3 974 b 1033 974 757 974 264 974 l 761 488 l 1033 1 b 3 1 281 1 742 1 l 275 488 l 3 974 "},"Y":{"ha":1008,"x_min":0,"x_max":0,"o":"m 747 486 l 747 0 l 261 0 l 261 486 l -11 972 b 1019 972 743 972 250 972 l 747 486 "},"Z":{"ha":1050,"x_min":0,"x_max":0,"o":"m 39 -1 l 218 506 l 39 506 l 39 972 l 1011 972 l 832 464 l 1011 464 l 1011 -1 l 39 -1 "},"a":{"ha":1146,"x_min":0,"x_max":0,"o":"m -39 0 l 575 1040 l 1189 0 b -39 0 115 0 1029 0 "},"b":{"ha":931,"x_min":0,"x_max":0,"o":"m 40 972 b 546 972 214 972 372 972 b 803 521 811 972 964 699 b 531 0 1025 357 875 0 b 40 0 363 0 208 0 l 40 972 "},"c":{"ha":894,"x_min":0,"x_max":0,"o":"m 165 849 b 889 849 365 1049 689 1049 l 526 488 l 889 125 b 165 125 689 -75 365 -75 b 165 849 -35 325 -35 649 "},"d":{"ha":1039,"x_min":0,"x_max":0,"o":"m 528 -1 l 42 -1 b 42 972 42 993 42 -22 l 528 972 b 1014 485 796 972 1014 753 b 528 -1 1014 217 796 -1 "},"e":{"ha":886,"x_min":0,"x_max":0,"o":"m 40 974 l 846 974 l 846 646 l 644 646 l 644 604 l 846 604 l 846 371 l 644 371 l 644 329 l 846 329 l 846 1 l 40 1 l 40 974 "},"f":{"ha":889,"x_min":0,"x_max":0,"o":"m 43 972 l 849 972 l 849 644 l 647 644 l 647 603 l 849 603 l 849 290 l 631 290 l 631 0 l 43 0 l 43 972 "},"g":{"ha":1064,"x_min":0,"x_max":0,"o":"m 532 488 l 1046 488 b 532 -26 1046 203 817 -26 b 18 488 247 -26 18 203 b 450 996 18 743 204 956 b 789 933 565 1014 686 992 l 532 488 "},"h":{"ha":1057,"x_min":0,"x_max":0,"o":"m 42 974 l 507 974 l 507 615 l 549 615 l 549 974 l 1014 974 l 1014 1 l 549 1 l 549 360 l 507 360 l 507 1 l 42 1 l 42 974 "},"i":{"ha":588,"x_min":0,"x_max":0,"o":"m 40 972 l 546 972 l 546 0 l 40 0 l 40 972 "},"j":{"ha":1044,"x_min":0,"x_max":0,"o":"m 1004 403 b 35 403 1004 -176 35 -176 l 35 607 l 494 607 l 494 433 l 536 433 b 536 974 536 622 536 783 l 1004 974 l 1004 403 "},"k":{"ha":999,"x_min":0,"x_max":0,"o":"m 42 972 l 994 972 l 631 486 l 994 -1 l 42 -1 l 42 972 "},"l":{"ha":835,"x_min":0,"x_max":0,"o":"m 528 486 l 797 486 l 797 0 l 42 0 b 42 972 42 324 42 649 l 528 972 l 528 486 "},"m":{"ha":1053,"x_min":0,"x_max":0,"o":"m 42 0 l 39 1010 l 525 642 l 1011 1010 l 1014 0 l 42 0 "},"n":{"ha":1053,"x_min":0,"x_max":0,"o":"m 42 996 l 531 614 l 531 972 l 1014 972 l 1014 0 b 42 0 118 0 938 0 l 42 996 "},"o":{"ha":1071,"x_min":0,"x_max":0,"o":"m 532 1006 b 1050 488 818 1006 1050 774 b 532 -31 1050 201 818 -31 b 14 488 246 -31 14 201 b 532 1006 14 774 246 1006 "},"p":{"ha":922,"x_min":0,"x_max":0,"o":"m 507 972 b 904 578 725 972 904 797 b 511 185 904 363 728 185 l 511 0 l 42 0 b 42 972 42 1078 42 222 l 507 972 "},"q":{"ha":1061,"x_min":0,"x_max":0,"o":"m 529 1010 b 1042 497 813 1010 1042 781 b 922 168 1042 372 996 257 l 783 304 l 754 275 l 1042 -7 l 1042 -15 l 529 -15 b 17 497 247 -15 17 217 b 529 1010 17 781 246 1010 "},"r":{"ha":919,"x_min":0,"x_max":0,"o":"m 508 972 b 904 576 726 972 904 796 b 753 267 904 450 846 339 l 896 -1 b 42 -1 611 -1 326 -1 b 42 972 42 1076 42 221 l 508 972 "},"s":{"ha":1001,"x_min":0,"x_max":0,"o":"m 249 972 l 978 972 l 978 483 l 808 483 l 808 474 b 756 -1 1088 411 1036 -1 l 32 -1 l 32 483 l 228 483 l 228 493 b 7 731 92 519 7 604 b 249 972 7 856 115 972 "},"t":{"ha":933,"x_min":0,"x_max":0,"o":"m 715 485 l 715 -1 l 229 -1 l 229 485 l 28 485 l 28 972 l 904 972 l 904 485 l 715 485 "},"u":{"ha":1044,"x_min":0,"x_max":0,"o":"m 36 467 l 36 975 b 1008 975 1031 975 14 975 l 1008 467 b 522 -19 1008 199 790 -19 b 36 467 254 -19 36 199 "},"v":{"ha":1164,"x_min":0,"x_max":0,"o":"m 1197 974 l 583 -68 l -32 974 b 1197 974 1042 974 129 974 "},"w":{"ha":1664,"x_min":0,"x_max":0,"o":"m -36 975 b 1700 975 1053 975 615 975 l 1088 -62 b 740 519 971 135 856 324 l 710 490 l 808 324 l 576 -62 l -36 975 "},"x":{"ha":1039,"x_min":0,"x_max":0,"o":"m 3 974 b 1033 974 757 974 264 974 l 761 488 l 1033 1 b 3 1 281 1 742 1 l 275 488 l 3 974 "},"y":{"ha":1008,"x_min":0,"x_max":0,"o":"m 747 486 l 747 0 l 261 0 l 261 486 l -11 972 b 1019 972 743 972 250 972 l 747 486 "},"z":{"ha":1050,"x_min":0,"x_max":0,"o":"m 39 -1 l 218 506 l 39 506 l 39 972 l 1011 972 l 832 464 l 1011 464 l 1011 -1 l 39 -1 "}," ":{"ha":557,"x_min":0,"x_max":0,"o":""},".":{"ha":378,"x_min":0,"x_max":0,"o":"m 185 281 b 346 126 275 281 346 213 b 185 -19 346 49 275 -19 b 29 126 100 -19 29 49 b 185 281 29 213 100 281 "},",":{"ha":400,"x_min":0,"x_max":0,"o":"m 150 -121 l 140 -12 b 32 126 78 7 32 64 b 188 281 32 213 103 281 b 349 126 278 281 349 213 b 314 36 349 93 335 61 l 175 -131 "},"?":{"ha":949,"x_min":0,"x_max":0,"o":"m 651 215 l 651 0 l 178 0 l 178 215 m 931 728 b 771 483 943 622 885 507 b 651 244 642 460 654 361 l 178 244 b 289 522 179 360 182 499 l 289 533 l 26 533 l 26 713 b 483 1014 26 910 256 1013 b 869 875 638 1015 790 969 b 931 728 903 835 926 788 "},"!":{"ha":593,"x_min":0,"x_max":0,"o":"m 542 238 l 542 0 l 39 0 l 39 238 m 542 974 l 542 269 l 39 269 l 39 974 "},"…":{"ha":1154,"x_min":0,"x_max":0,"o":"m 185 281 b 346 126 275 281 346 213 b 185 -19 346 49 275 -19 b 29 126 100 -19 29 49 b 185 281 29 213 100 281 m 563 281 b 724 126 653 281 724 213 b 563 -19 724 49 653 -19 b 407 126 478 -19 407 49 b 563 281 407 213 478 281 m 940 281 b 1101 126 1031 281 1101 213 b 940 -19 1101 49 1031 -19 b 785 126 856 -19 785 49 b 940 281 785 213 856 281 "},"(":{"ha":567,"x_min":0,"x_max":0,"o":"m 542 1017 b 542 -112 353 635 338 282 l 190 -112 b 190 1017 -15 242 -12 661 "},")":{"ha":629,"x_min":0,"x_max":0,"o":"m 388 1017 b 388 -112 590 661 593 242 l 36 -112 b 36 1017 240 282 225 635 "},"‚":{"ha":463,"x_min":0,"x_max":0,"o":"m 182 -121 l 172 -12 b 64 126 110 7 64 64 b 219 281 64 213 135 281 b 381 126 310 281 381 213 b 346 36 381 93 367 61 l 207 -131 "},"„":{"ha":861,"x_min":0,"x_max":0,"o":"m 190 -121 l 181 -12 b 72 126 118 7 72 64 b 228 281 72 213 143 281 b 389 126 318 281 389 213 b 354 36 389 93 375 61 l 215 -131 m 556 -121 l 546 -12 b 438 126 483 7 438 64 b 593 281 438 213 508 281 b 754 126 683 281 754 213 b 719 36 754 93 740 61 l 581 -131 "},"‘":{"ha":440,"x_min":0,"x_max":0,"o":"m 263 986 l 272 878 b 381 739 335 858 381 801 b 225 585 381 653 310 585 b 64 739 135 585 64 653 b 99 829 64 772 78 804 l 238 996 "},"’":{"ha":451,"x_min":0,"x_max":0,"o":"m 182 579 l 172 688 b 64 826 110 707 64 764 b 219 981 64 913 135 981 b 381 826 310 981 381 913 b 346 736 381 793 367 761 l 207 569 "},"”":{"ha":790,"x_min":0,"x_max":0,"o":"m 182 579 l 172 688 b 64 826 110 707 64 764 b 219 981 64 913 135 981 b 381 826 310 981 381 913 b 346 736 381 793 367 761 l 207 569 m 536 579 l 526 688 b 418 826 464 707 418 764 b 574 981 418 913 489 981 b 735 826 664 981 735 913 b 700 736 735 793 721 761 l 561 569 "},"“":{"ha":808,"x_min":0,"x_max":0,"o":"m 615 971 l 625 863 b 733 724 688 843 733 786 b 578 569 733 638 663 569 b 417 724 488 569 417 638 b 451 814 417 757 431 789 l 590 981 m 261 971 l 271 863 b 379 724 333 843 379 786 b 224 569 379 638 308 569 b 63 724 133 569 63 638 b 97 814 63 757 76 789 l 236 981 "},":":{"ha":444,"x_min":0,"x_max":0,"o":"m 217 281 b 378 126 307 281 378 213 b 217 -19 378 49 307 -19 b 61 126 132 -19 61 49 b 217 281 61 213 132 281 m 217 706 b 378 551 307 706 378 638 b 217 406 378 474 307 406 b 61 551 132 406 61 474 b 217 706 61 638 132 706 "},";":{"ha":444,"x_min":0,"x_max":0,"o":"m 217 706 b 378 551 307 706 378 638 b 217 406 378 474 307 406 b 61 551 132 406 61 474 b 217 706 61 638 132 706 m 179 -121 l 169 -12 b 61 126 107 7 61 64 b 217 281 61 213 132 281 b 378 126 307 281 378 213 b 343 36 378 93 364 61 l 204 -131 "},"H":{"ha":1057,"x_min":0,"x_max":0,"o":"m 42 974 l 507 974 l 507 615 l 549 615 l 549 974 l 1014 974 l 1014 1 l 549 1 l 549 360 l 507 360 l 507 1 l 42 1 l 42 974 "}}}
